<?xml version="1.0" encoding="utf-8"?>
<!-- Generator: Adobe Illustrator 24.1.3, SVG Export Plug-In . SVG Version: 6.00 Build 0)  -->
<svg version="1.1" xmlns="http://www.w3.org/2000/svg" xmlns:xlink="http://www.w3.org/1999/xlink" x="0px" y="0px"
	 viewBox="0 0 1200 850" style="enable-background:new 0 0 1200 850;" xml:space="preserve">
<style type="text/css">
	.st0{display:none;}
	.st1{fill:#FFFFFF;}
	.st2{fill:none;stroke:#FFFFFF;stroke-width:16;stroke-miterlimit:10;}
	.st3{fill:none;stroke:#FFFFFF;stroke-width:10;stroke-miterlimit:10;}
	.st4{fill:none;stroke:#FFFFFF;stroke-width:15;stroke-miterlimit:10;}
</style>
<g id="Layer_1">
	<rect x="-103.53" y="0" class="st0" width="1302.9" height="850"/>
	<g>
		<g>
			<g>
				<path class="st1" d="M348.62,645.36h0.26c0.38,0.03,1.07,0.4,2.06,1.1c1,0.71,1.5,1.18,1.5,1.41c0,0.06-0.07,0.22-0.21,0.49
					c-0.79,1.59-1.19,6.46-1.19,14.62c0,2.3,0.14,4.37,0.41,6.23c0.38,2.56,0.55,4.11,0.52,4.64c0,0.85,0.17,1.49,0.52,1.9
					c0.34,0.47,0.55,0.71,0.62,0.71l0.98-0.13c0.17-0.03,0.33,0.25,0.46,0.84c0.14,0.53,0.36,0.96,0.67,1.28
					c0.31,0.35,0.46,0.6,0.46,0.75c0,0.12-0.1,0.31-0.31,0.57c-0.21,0.24-0.43,0.56-0.67,0.97c-0.21,0.35-0.35,0.56-0.44,0.62
					c-0.09,0.06-0.46,0.15-1.11,0.26c-0.21,0.03-0.31,0.26-0.31,0.71c0,0.62,0.14,1.34,0.41,2.16c0.14,0.5,0.53,2.21,1.19,5.12
					c0.48,2.18,0.95,3.71,1.42,4.59c0.46,0.88,1.06,1.37,1.78,1.46c0.41,0.06,0.64,0.11,0.7,0.15c0.05,0.04,0.11,0.29,0.18,0.73
					l0.57,1.06c0,0.18-0.16,0.39-0.49,0.64c-0.33,0.25-0.59,0.38-0.8,0.38c-0.65,0-1.07,0.04-1.24,0.11
					c-0.17,0.07-0.58,0.33-1.24,0.77c-1.1,0.77-2.06,1.15-2.89,1.15c-0.45,0-1.19-0.14-2.24-0.42c-1.05-0.28-1.88-0.55-2.5-0.82
					l-0.98,0.04c-0.58,0-1.27-0.41-2.06-1.24c-0.76-0.77-1.12-1.21-1.08-1.32l0.41-2.25c0-0.03-0.09-0.28-0.26-0.75
					c-0.1-0.44-0.58-3.31-1.44-8.61c-0.14-0.77-0.26-1.21-0.36-1.35c-0.1-0.13-0.4-0.2-0.88-0.2c-0.52,0-1.89,0.12-4.13,0.35
					c-2.47,0.26-4.24,0.4-5.31,0.4c-0.52,0-1.34-0.09-2.48-0.26c-0.31-0.06-0.6-0.09-0.88-0.09c-1.2,0-2.34,1.56-3.4,4.68
					c-0.72,2.15-1.43,3.84-2.14,5.08c-0.7,1.24-1.68,2.47-2.91,3.71c-0.69,0.85-1.21,1.4-1.57,1.63c-0.36,0.24-0.8,0.35-1.31,0.35
					c-0.72,0-1.74-0.28-3.04-0.84c-0.62-0.26-1.03-0.4-1.24-0.4c-0.07,0-0.4,0.07-0.98,0.22c-0.27,0.06-0.55,0.09-0.82,0.09
					c-1.34,0-2.01-0.4-2.01-1.19c0-0.24,1.1-1.72,3.3-4.46c0.41-0.71,1.72-3.56,3.92-8.57c0.55-1.27,1.88-5.64,4-13.14
					c2.11-7.49,3.41-12.43,3.89-14.82c1.37-6.83,2.42-10.85,3.14-12.06c0.31-0.56,0.72-1.57,1.24-3.05
					c0.07-0.21,0.55-0.49,1.44-0.86s1.53-0.55,1.91-0.55c0.17,0,0.58,0.19,1.24,0.57c0.38,0.24,0.76,0.35,1.13,0.35
					c0.34,0,0.72-0.06,1.13-0.18c1.1-0.26,1.75-0.4,1.96-0.4c0.03,0,1.87,0.32,5.52,0.97c0.72,0.12,1.21,0.26,1.47,0.42
					c0.26,0.16,0.77,0.64,1.52,1.44C346.73,643.88,347.73,644.62,348.62,645.36z M335.89,646.64c-0.21,0-0.62,1.03-1.24,3.09
					c-0.14,0.59-0.46,2.77-0.98,6.54c-0.62,2.44-1.03,4.21-1.24,5.3c-0.76,4.3-1.43,7.43-2.01,9.41c-0.24,0.79-0.36,1.55-0.36,2.25
					c0,1.15,0.31,1.74,0.93,1.77c0.07,0,0.27-0.07,0.62-0.22c0.69-0.29,1.46-0.44,2.32-0.44l4.64,0.09c0.79,0,1.35-0.14,1.68-0.42
					c0.33-0.28,0.49-0.73,0.49-1.35c0-1.3-0.05-2.61-0.15-3.93c-0.14-1.68-0.21-2.53-0.21-2.56l0.36-6.05
					c-0.17-2.47-0.26-4.12-0.26-4.95c0-1,0.02-2.08,0.05-3.22c0.03-0.59,0.05-1.1,0.05-1.55c0-1.83-0.89-2.83-2.68-3
					C337.31,647.3,336.64,647.05,335.89,646.64z"/>
			</g>
			<g>
				<path class="st1" d="M371.93,683.42c-0.1,0.88-0.15,1.55-0.15,1.99c0,1.65,0.45,3.16,1.34,4.55c1,1.62,2.2,2.43,3.61,2.43
					c0.41,0,0.84-0.13,1.29-0.4c0.38-0.21,0.86-0.34,1.44-0.4c0.55-0.03,2.06-1.19,4.54-3.49c0.89-0.82,1.43-1.35,1.62-1.59
					c0.19-0.24,0.65-0.97,1.37-2.21c0.34-0.56,0.65-0.84,0.93-0.84c0.38,0,0.57,0.22,0.57,0.66c0,0.18-0.05,0.47-0.15,0.88
					l0.21,1.99c0,0.12,0,0.21,0,0.26c0,0.71-0.04,1.2-0.13,1.48c-0.09,0.28-0.33,0.7-0.75,1.26c-1.13,1.62-1.75,2.49-1.86,2.63
					c-0.1,0.13-0.81,0.79-2.11,1.97c-1.75,1.94-2.93,3.11-3.53,3.51c-0.6,0.4-1.62,0.71-3.07,0.95l-4.23,0.71
					c-0.86-0.03-2.16-0.48-3.89-1.35c-1.74-0.87-2.96-1.67-3.69-2.41c-0.72-0.74-1.41-1.89-2.06-3.47c-0.65-1.58-1.03-3-1.13-4.26
					c-0.07-0.97-0.1-7.39-0.1-19.25c0-2,0.36-5.59,1.08-10.75c0.72-5.17,1.31-8.46,1.75-9.87c0.62-1.85,0.93-3.09,0.93-3.71
					l-0.05-1.5c0-0.44,0.11-0.74,0.33-0.91c0.22-0.16,0.78-0.39,1.68-0.68c2.65-0.91,4.36-1.37,5.16-1.37
					c0.27,0,1.63,0.15,4.07,0.44c0.52,0.03,0.78,0.04,0.8,0.04c0.02,0,0.16,0.13,0.44,0.4c0.14,0.12,0.72,0.37,1.75,0.75
					c1.82,0.65,3.23,3.12,4.23,7.42c0.55,2.33,0.83,4.43,0.83,6.31c0,4.3-1.1,8.79-3.3,13.49
					C379.47,673.79,376.22,678.56,371.93,683.42z M371.77,676.31c4.36-5.68,6.55-12.14,6.55-19.39c0-0.94-0.19-3.31-0.57-7.11
					c-0.31-2.77-0.91-4.15-1.81-4.15c-1,0-1.89,3.65-2.68,10.95C372.27,665.6,371.77,672.16,371.77,676.31z"/>
			</g>
			<g>
				<path class="st1" d="M397.19,696.09l-1.55,0.13c-0.72,0-1.64-0.43-2.76-1.28c-1.12-0.85-2.04-1.83-2.76-2.91
					c-1.17-1.71-1.75-3.53-1.75-5.48c0-1.15,0.07-2.4,0.21-3.75c0.27-2.8,0.41-4.7,0.41-5.7c0-0.91,0.1-1.85,0.31-2.83
					c0.07-1.83,0.13-2.91,0.18-3.25s0.27-1.21,0.64-2.63c0.17-0.68,0.26-1.22,0.26-1.63c0-0.53-0.05-0.88-0.15-1.04
					c-0.1-0.16-0.4-0.4-0.88-0.73l0.15-0.49c0.03-0.12,0.05-0.34,0.05-0.66c0-0.15,0.19-0.35,0.57-0.6s0.67-0.36,0.88-0.33
					l1.19,0.13c0.07,0,0.34-0.13,0.83-0.4c0.76-0.5,2.06-0.75,3.92-0.75c0.55,0,1.1,0.26,1.65,0.79c0.79,0.77,1.82,1.56,3.09,2.38
					c0.41,0.29,0.62,0.6,0.62,0.93c0,0.32-0.33,0.93-0.98,1.81c-0.34,0.56-0.58,1.71-0.72,3.44c-0.07,0.59-0.45,2.43-1.13,5.52
					c-0.55,2.36-0.83,4.58-0.83,6.67c0,4.06,0.93,6.09,2.78,6.09c0.69,0,1.46-0.35,2.32-1.04c0.86-0.69,1.6-1.54,2.22-2.54
					c0.89-1.56,1.46-2.34,1.7-2.34c0.45,0,0.64,0.46,0.57,1.37c0,0.21-0.03,0.47-0.1,0.79c-0.07,0.26-0.1,0.47-0.1,0.62l0.05,2.43
					c0,0.15-0.24,0.59-0.72,1.32l-0.41,0.71l-1.03,0.93l-0.41,0.44l-0.98,0.62l-1.91,1.63l-1.08,0.49
					c-1.38,0.77-2.36,1.15-2.94,1.15L397.19,696.09z M397.19,656.48l-1.75,0.13c-0.45,0-1.15-0.27-2.11-0.82
					c-0.96-0.54-1.72-1.11-2.27-1.7c-0.79-0.82-1.19-1.68-1.19-2.56c0-0.97,0.41-2.16,1.24-3.58c0.52-0.88,1.17-1.41,1.96-1.59
					c0.27-0.06,1.03-0.25,2.27-0.57l1.55,0.22c1.1,0.12,1.79,0.22,2.06,0.31c0.28,0.09,0.64,0.34,1.08,0.75
					c0.82,0.68,1.28,1.1,1.37,1.26c0.08,0.16,0.21,0.73,0.39,1.7c0.24,0.88,0.36,1.43,0.36,1.63c0,0.32-0.19,0.74-0.57,1.24
					c-0.58,0.71-0.93,1.16-1.03,1.37c-0.58,1-1.01,1.63-1.26,1.9c-0.26,0.26-0.59,0.38-1.01,0.35L397.19,656.48z"/>
			</g>
			<g>
				<path class="st1" d="M415.03,673.93c-0.21,0.62-0.4,1.87-0.57,3.75c-0.1,1.03-0.56,2.6-1.37,4.7c-0.81,2.1-1.54,3.67-2.19,4.7
					c-1.38,2.09-2.11,3.24-2.22,3.44c-0.38,0.82-0.74,1.24-1.08,1.24c-0.31,0-0.47-0.19-0.47-0.57c0-0.24,0.07-0.68,0.21-1.32
					c0.03-0.26,0.05-0.56,0.05-0.88c0-0.65-0.02-1.25-0.05-1.81c0-0.35,0-0.71,0-1.06c0-0.41,0.17-1.18,0.52-2.3
					c0.24-0.74,0.43-1.84,0.57-3.31c0.27-2.74,0.5-4.12,0.67-4.15c0.21-0.71,0.31-1.13,0.31-1.28c0-0.53-0.34-1.49-1.03-2.87
					c-0.52-0.97-0.76-1.66-0.72-2.08l0.15-2.91l0.1-2.25l0.26-3.27l-0.05-0.88c0-0.18,0.04-0.31,0.13-0.4
					c0.08-0.09,0.4-0.29,0.95-0.62l1.29-0.93c1.31-0.65,1.98-0.97,2.01-0.97c0.14,0,0.36,0.1,0.67,0.31
					c0.27,0.18,0.69,0.29,1.24,0.35c0.93,0.09,1.49,0.22,1.68,0.4s0.28,0.65,0.28,1.41c0,0.26-0.17,0.69-0.52,1.28
					c-0.07,0.21-0.28,1.28-0.62,3.22c0.14,0.32,0.21,0.5,0.21,0.53l-0.05,0.66c-0.03,0.26,0.34,0.4,1.13,0.4
					c1.1,0,2.22-0.23,3.35-0.68c1.13-0.46,2.01-1.02,2.63-1.7c0.21-0.26,0.41-0.43,0.62-0.51c0.21-0.07,0.79-0.17,1.75-0.29
					c0.28,0.03,0.65,0.24,1.13,0.62c0.62,0.44,1.09,0.73,1.42,0.86c0.33,0.13,1.16,0.38,2.5,0.73c0.55,0.15,1.07,0.52,1.55,1.1
					l0.67,0.84c-1.03,1.09-1.6,1.81-1.7,2.16c-0.34,1.47-0.58,2.36-0.72,2.65c-0.14,0.35-0.24,0.81-0.31,1.37
					c-0.38,0.88-0.6,1.5-0.67,1.85v1.24c0,0.38-0.21,1.12-0.62,2.21c-0.07,1.44-0.21,2.72-0.41,3.84c-0.21,1.12-0.31,2.27-0.31,3.44
					c0,1.91,0.26,3.17,0.77,3.78c0.52,0.6,1.65,0.96,3.4,1.08l1.03,0.18c0.27-0.03,0.72-0.49,1.34-1.37c1-0.97,1.53-1.5,1.6-1.59
					c0.07-0.09,0.43-0.62,1.08-1.59c0.24-0.41,0.45-0.62,0.62-0.62c0.34,0,0.52,0.29,0.52,0.88l-0.05,2.08
					c0,1.41-0.05,2.28-0.15,2.61c-0.1,0.32-0.43,0.77-0.98,1.32c-1.75,1.74-3.6,3.25-5.54,4.53c-1.94,1.28-3.36,1.92-4.25,1.92
					c-0.58,0-1.51-0.19-2.78-0.57c-1.27-0.38-2.16-0.75-2.68-1.1c-1.13-0.77-2.1-1.74-2.89-2.91c-1.03-1.59-1.55-2.87-1.55-3.84
					c0-2.27,0.05-4,0.15-5.21c0.1-1.21,0.33-2.52,0.67-3.93l1.19-5.56c0.34-0.97,0.52-1.49,0.52-1.55c0-0.24-0.17-0.53-0.52-0.88
					c-0.34-0.35-0.64-0.53-0.88-0.53c-0.1,0-0.36,0.1-0.77,0.31C416.77,673.85,416.03,673.96,415.03,673.93z"/>
			</g>
			<g>
				<path class="st1" d="M442.3,663.99c0.76-0.06,1.19-0.1,1.29-0.13c0.1-0.03,1.37-0.5,3.81-1.41c1.13-0.35,2.92-0.54,5.36-0.57
					l3.3-0.31c0.86,0,1.89,0.59,3.09,1.77c0.79,0.77,1.67,1.46,2.63,2.08c0.58,0.38,1.16,1.44,1.73,3.16
					c0.57,1.72,0.85,3.25,0.85,4.57c0,1.62-0.33,3.27-0.98,4.95c-0.65,1.68-1.48,2.97-2.47,3.89c-1.72,1.59-2.77,2.53-3.14,2.83
					c-0.38,0.29-0.84,0.57-1.39,0.84c-1.03,0.47-1.67,0.71-1.91,0.71c-0.17,0-0.36,0-0.57,0c-0.55,0.29-1.01,0.44-1.39,0.44
					c-0.45,0-1.37-0.1-2.78-0.31c-0.41-0.06-0.77-0.09-1.08-0.09c-0.58,0-0.88,0.34-0.88,1.02c0,1.74,0.57,3.23,1.7,4.48
					c1.13,1.25,2.48,1.88,4.02,1.88c2.1,0,4.38-0.69,6.86-2.08c0.48-0.26,1.32-1.02,2.53-2.25c0-0.06,0.48-0.46,1.44-1.19
					c1.13-0.85,1.75-1.47,1.86-1.85c0.48-0.77,0.89-1.31,1.24-1.63c0.34-0.32,0.58-0.49,0.72-0.49c0.31,0,0.45,0.18,0.41,0.53
					c0,0.15-0.02,0.35-0.05,0.62c-0.03,0.26-0.05,0.56-0.05,0.88c0,0.35,0.03,0.84,0.1,1.46c0.03,0.5,0.05,0.96,0.05,1.37
					c0,0.82-0.55,1.84-1.65,3.05c-1.1,1.21-2.42,2.25-3.97,3.14c-0.93,0.56-2.22,1.57-3.87,3.05c-0.69,0.59-2.05,1.17-4.07,1.74
					c-2.03,0.57-3.78,0.86-5.26,0.86c-2.13,0-4.37-0.91-6.7-2.74c-1.44-1.15-2.44-2.05-2.99-2.69c-1.58-1.91-2.37-4.36-2.37-7.33
					c0-3.41,0.2-6.44,0.59-9.07c0.4-2.63,1.18-6.06,2.35-10.27C441.17,666.96,441.72,665.35,442.3,663.99z M452.87,665.36
					c-0.72,0-1.77,2.5-3.14,7.51c-1.2,4.5-1.8,7.51-1.8,9.01c0,0.32,0.04,0.52,0.13,0.57c0.08,0.06,0.37,0.13,0.85,0.22
					c0.14,0,0.38,0.09,0.72,0.26c0.38,0.18,0.67,0.26,0.88,0.26c1.2,0,2.38-1.32,3.53-3.97c1.15-2.65,1.73-5.36,1.73-8.13
					c0-1.3-0.21-2.61-0.62-3.93c-0.17-0.5-0.32-0.82-0.44-0.95c-0.12-0.13-0.47-0.3-1.06-0.51L452.87,665.36z"/>
			</g>
			<g>
				<path class="st1" d="M491.39,699.58c-0.1,0-0.45,0.07-1.03,0.22c-0.55,0.12-1.03,0.18-1.44,0.18c-1.31,0-2.91-0.15-4.79-0.44
					c-3.03-0.5-5.6-0.75-7.73-0.75c-1.2,0-2.9,0.25-5.1,0.75c-0.21,0.06-0.5,0.09-0.88,0.09c-0.79,0-1.47-0.16-2.04-0.49
					c-0.57-0.32-0.85-0.72-0.85-1.19c0-0.38,0.33-0.85,0.98-1.41c0.14-0.12,0.21-0.35,0.21-0.71c0-0.44-0.38-1.15-1.13-2.12
					c-0.28-0.38-0.41-0.68-0.41-0.88c0-0.38,0.19-0.77,0.57-1.17c0.38-0.4,1.68-1.61,3.92-3.64c5.88-5.56,9.76-9.88,11.65-12.94
					c0.72-1.09,1.29-1.84,1.7-2.25c0.34-0.32,0.52-0.56,0.52-0.71c0-0.24-0.19-0.45-0.57-0.64s-0.81-0.29-1.29-0.29
					c-0.69,0-2.11,0.07-4.28,0.22c-2.16,0.15-3.39,0.26-3.66,0.35c-2.3,0.56-3.87,0.84-4.69,0.84c-0.65,0-0.98-0.26-0.98-0.79
					c0-0.15,0.31-0.65,0.93-1.5c0.07-0.09,0.1-0.18,0.1-0.26c0-0.18-0.17-0.38-0.52-0.62c-0.34-0.26-0.52-0.44-0.52-0.53l0.1-1.55
					c0-0.06-0.1-0.31-0.31-0.75c-0.14-0.32-0.21-0.68-0.21-1.06c0-1.15,0.69-1.72,2.06-1.72c0.31,0,0.77,0.01,1.39,0.04
					c0.21,0,0.46,0,0.77,0c0.48,0,2.68-0.13,6.6-0.4c2.03-0.12,3.64-0.25,4.85-0.4c1.44-0.18,2.27-0.26,2.47-0.26l5.05,0.31
					l3.25-0.04c1.17,0,1.75,0.44,1.75,1.32c0,0.29-0.07,0.57-0.21,0.84c-0.28,0.5-0.41,0.82-0.41,0.97c0,0.18,0.02,0.35,0.05,0.53
					c0.1,0.32,0.15,0.53,0.15,0.62c0,0.21-0.1,0.46-0.31,0.75c-0.1,0.15-0.15,0.25-0.15,0.31c0,0.15,0.12,0.34,0.36,0.57
					c0.28,0.21,0.41,0.38,0.41,0.53c0,0.29-0.16,0.63-0.49,1.02c-0.33,0.38-1.47,1.56-3.43,3.53l-4.85,5.83
					c-2.92,3.33-5.88,6.68-8.87,10.07c-0.45,0.35-0.67,0.6-0.67,0.75c0,0.21,0.25,0.4,0.75,0.6c0.5,0.19,1.07,0.29,1.73,0.29
					l2.42-0.04c0.52,0,1.29,0.04,2.32,0.13c1.79,0.15,3.3,0.22,4.54,0.22c0.93,0,1.86-0.12,2.78-0.35c0.48-0.12,0.89-0.18,1.24-0.18
					c1.07,0,1.56,0.43,1.5,1.28c-0.03,0.32-0.53,0.93-1.5,1.81c-0.38,0.35-0.57,0.65-0.57,0.88c0,0.18,0.12,0.4,0.36,0.66
					c0.58,0.62,0.88,1.05,0.88,1.28c0,0.09-0.09,0.24-0.26,0.44c-0.17,0.21-0.26,0.34-0.26,0.4l0.05,0.75
					c0,0.09-0.15,0.26-0.47,0.53c-0.31,0.26-0.52,0.4-0.62,0.4L491.39,699.58z"/>
			</g>
			<g>
				<path class="st1" d="M519.49,691.59c-0.62,0.82-1.7,2.41-3.25,4.77c-0.27,0.38-0.96,1.04-2.06,1.97
					c-1.1,0.93-1.94,1.54-2.53,1.83c-0.76,0.41-1.46,0.62-2.11,0.62c-1.69,0-3.4-0.72-5.16-2.16c-2.44-1.97-3.66-5.09-3.66-9.36
					c0-3.71,0.74-8.61,2.22-14.7c0.52-2.18,1.07-3.8,1.68-4.86c0.6-1.06,1.74-2.52,3.43-4.37c0.69-0.77,1.25-1.27,1.7-1.5
					c0.45-0.24,1.6-0.66,3.46-1.28c1.27-0.44,2.2-0.66,2.78-0.66c0.86,0,1.57,0.14,2.12,0.42s1.5,0.98,2.84,2.1
					c0.41,0.35,0.7,0.52,0.87,0.49c0.55-0.09,0.91-0.15,1.08-0.18c0.69,0.59,1.23,0.93,1.62,1.04c0.4,0.1,1.35,0.17,2.86,0.2
					c1.24,0.03,2.14,0.21,2.71,0.53s0.97,0.91,1.21,1.77c0.38,0.41,0.57,0.69,0.57,0.84c0,0.21-0.14,0.5-0.41,0.88
					c-0.31,0.41-0.46,0.66-0.46,0.75l0.05,1.68c0,0.12-0.1,0.4-0.31,0.84c-0.45,0.97-0.75,1.82-0.9,2.54
					c-0.15,0.72-0.46,2.7-0.9,5.94c-0.41,1.56-0.62,2.68-0.62,3.36c0,1.09,0.14,2.06,0.41,2.91c0.62,1.91,1.44,2.87,2.47,2.87
					c0.41,0,1.43-0.83,3.07-2.49c1.63-1.66,2.72-3,3.27-4c0.31-0.59,0.58-0.88,0.82-0.88c0.31,0,0.47,0.19,0.47,0.57
					c0,0.21-0.05,0.57-0.16,1.1c-0.07,0.32-0.1,0.71-0.1,1.15c0,0.38,0.02,0.72,0.05,1.02c0.07,0.44,0.11,0.72,0.11,0.84
					c0,1.12-1.27,2.81-3.82,5.08c-0.86,0.77-1.61,1.18-2.27,1.24c-0.07,0-0.6,0.38-1.6,1.15c-0.45,0.35-1.22,0.65-2.32,0.88
					c-0.93,0.18-1.53,0.32-1.8,0.44c-0.24,0.09-0.4,0.13-0.47,0.13c-0.03,0-1.13-0.37-3.3-1.1
					C521.95,695.58,520.72,694.12,519.49,691.59z M517.63,667.21c-0.62,0-1.13,0.49-1.54,1.46c-0.04,0.09-0.31,0.54-0.83,1.37
					c-0.45,0.71-1.27,3.12-2.47,7.24c-1.31,4.39-1.96,7.85-1.96,10.38c0,1.8,0.26,3.24,0.77,4.33c0.48,0.97,0.96,1.46,1.45,1.46
					c0.31,0,0.67-0.28,1.08-0.84c0.55-0.77,0.86-1.18,0.93-1.24c0.72-0.62,1.12-1.07,1.19-1.37c0.03-0.18,0.29-0.71,0.77-1.59
					c0.89-2.53,1.38-4.2,1.45-4.99l0.31-1.06l0.15-1.77c0.17-0.35,0.26-0.74,0.26-1.15c-0.04-0.47,0.08-1.15,0.36-2.03
					c0.52-1.8,0.79-3.25,0.83-4.37c0.27-1.06,0.41-1.71,0.41-1.94c0-0.82-0.18-1.65-0.52-2.47c-0.11-0.29-0.23-0.48-0.36-0.55
					c-0.14-0.07-0.53-0.17-1.19-0.29C518.16,667.41,517.8,667.21,517.63,667.21z"/>
			</g>
			<g>
				<path class="st1" d="M598.89,697.15c3.09,0.06,5.36,0.21,6.81,0.44c0.76,0.12,1.2,0.23,1.34,0.33c0.13,0.1,0.31,0.46,0.51,1.08
					c1.17,0.74,1.84,1.19,2.01,1.37c0.17,0.18,0.36,0.63,0.57,1.37c0.34,1.21,0.69,2.05,1.03,2.52c0.27,0.44,0.41,0.82,0.41,1.15
					c0,0.47-0.23,0.71-0.67,0.71c-0.17,0-0.43-0.1-0.77-0.31c-1.03-0.62-1.94-0.93-2.73-0.93c-0.79,0-1.94,0.19-3.46,0.57
					c-1.41,0.35-4.66,0.85-9.74,1.5c-6.12,1.27-10.09,1.9-11.91,1.9c-0.72,0-1.29-0.08-1.7-0.24c-0.41-0.16-1.05-0.55-1.91-1.17
					c-1-0.77-1.58-1.47-1.75-2.12c-0.1-0.5-0.41-0.91-0.93-1.24c-1.2-0.77-1.81-1.4-1.81-1.9c0-0.21,0.16-0.44,0.47-0.71
					s0.58-0.4,0.83-0.4l3.45,0.22c0.17,0.03,1.03-0.24,2.58-0.79c2.2-0.5,4.09-0.91,5.67-1.24c-1.13-0.35-2.92-0.77-5.36-1.24
					c-1-0.21-1.8-0.66-2.42-1.37c-0.41-0.44-0.93-0.77-1.55-0.97c-0.86-0.15-2-1.13-3.4-2.96c-0.69-0.91-1.13-1.52-1.34-1.81
					c-1.75-2.12-2.78-3.68-3.09-4.68c-0.31-1-0.53-3.46-0.67-7.37l-0.15-4.46l0.67-3.67l-0.05-2.43c0-1,0.36-2.61,1.08-4.81
					c3.27-10.3,4.73-15.72,4.38-16.25l0.16-0.84c-0.17-0.56-0.26-0.91-0.26-1.06c0-0.24,0.33-0.59,0.98-1.06
					c1.1-0.94,1.72-1.4,1.86-1.37l1.03,0.13c1.55-0.32,2.46-0.49,2.73-0.49c0.24,0,0.52,0.03,0.83,0.09
					c0.27,0.03,0.45,0.04,0.51,0.04c0.48,0,1.31-0.47,2.48-1.41c0.72-0.56,1.24-0.82,1.55-0.79l1.5,0.09
					c1.34-0.41,2.27-0.62,2.78-0.62c2.41,0,4.25,0.07,5.54,0.22c1.29,0.15,2.31,0.4,3.07,0.75c2.65,1.21,4.5,2.24,5.57,3.09
					c1.06,0.85,2.13,2.16,3.19,3.93c2.85,4.71,4.28,10.77,4.28,18.19c0,3.15-0.29,6.95-0.88,11.39c-0.17,1.24-0.59,2.24-1.24,3
					c-0.38,0.44-0.63,0.86-0.75,1.26c-0.12,0.4-0.35,1.49-0.7,3.29c-0.21,1.15-0.99,2.72-2.35,4.72s-2.69,3.56-3.99,4.68
					C602,695.45,600.57,696.33,598.89,697.15z M593.88,645.97c-1.65-0.06-3.25,1.06-4.79,3.36c-1.58,2.33-2.51,4.43-2.78,6.31
					c-0.1,0.88-0.22,1.42-0.36,1.61s-0.53,0.4-1.19,0.64l-0.36,1.06c-0.76,2.03-1.21,3.28-1.37,3.75c-0.15,0.47-0.3,1.1-0.44,1.9
					c-1.03,6.39-1.55,10.64-1.55,12.76c0,3.47,0.29,6.8,0.88,9.98c0.28,1.5,0.91,2.96,1.91,4.37c1,1.41,1.89,2.12,2.68,2.12
					c0.34,0,0.93-0.19,1.75-0.57c0.31-0.15,0.51-0.22,0.62-0.22l0.93,0.26c0.14,0.03,0.27,0.04,0.41,0.04
					c1.55,0,3.09-0.89,4.64-2.67c1.55-1.78,2.85-4.2,3.92-7.26c0.86-2.33,1.58-5.52,2.16-9.58c0.58-4.06,0.88-7.8,0.88-11.22
					c0-1.03-0.31-3.18-0.93-6.45c-0.59-3.06-1-4.92-1.24-5.59c-0.24-0.66-0.86-1.48-1.86-2.45
					C596.29,646.67,594.98,645.95,593.88,645.97z"/>
			</g>
			<g>
				<path class="st1" d="M636.94,691.59c-0.62,0.82-1.7,2.41-3.25,4.77c-0.27,0.38-0.96,1.04-2.06,1.97
					c-1.1,0.93-1.94,1.54-2.53,1.83c-0.76,0.41-1.46,0.62-2.11,0.62c-1.69,0-3.4-0.72-5.16-2.16c-2.44-1.97-3.66-5.09-3.66-9.36
					c0-3.71,0.74-8.61,2.22-14.7c0.51-2.18,1.07-3.8,1.67-4.86c0.6-1.06,1.74-2.52,3.43-4.37c0.69-0.77,1.25-1.27,1.7-1.5
					c0.44-0.24,1.6-0.66,3.45-1.28c1.27-0.44,2.2-0.66,2.78-0.66c0.86,0,1.56,0.14,2.12,0.42c0.55,0.28,1.5,0.98,2.83,2.1
					c0.41,0.35,0.7,0.52,0.88,0.49c0.55-0.09,0.91-0.15,1.08-0.18c0.69,0.59,1.23,0.93,1.62,1.04c0.4,0.1,1.35,0.17,2.86,0.2
					c1.24,0.03,2.14,0.21,2.71,0.53s0.97,0.91,1.21,1.77c0.38,0.41,0.57,0.69,0.57,0.84c0,0.21-0.14,0.5-0.41,0.88
					c-0.31,0.41-0.46,0.66-0.46,0.75l0.05,1.68c0,0.12-0.1,0.4-0.31,0.84c-0.45,0.97-0.75,1.82-0.9,2.54
					c-0.16,0.72-0.46,2.7-0.9,5.94c-0.41,1.56-0.62,2.68-0.62,3.36c0,1.09,0.14,2.06,0.41,2.91c0.62,1.91,1.44,2.87,2.47,2.87
					c0.41,0,1.43-0.83,3.07-2.49c1.63-1.66,2.72-3,3.27-4c0.31-0.59,0.58-0.88,0.82-0.88c0.31,0,0.47,0.19,0.47,0.57
					c0,0.21-0.05,0.57-0.16,1.1c-0.07,0.32-0.1,0.71-0.1,1.15c0,0.38,0.02,0.72,0.05,1.02c0.07,0.44,0.1,0.72,0.1,0.84
					c0,1.12-1.27,2.81-3.82,5.08c-0.86,0.77-1.62,1.18-2.27,1.24c-0.07,0-0.6,0.38-1.6,1.15c-0.45,0.35-1.22,0.65-2.32,0.88
					c-0.93,0.18-1.53,0.32-1.8,0.44c-0.24,0.09-0.4,0.13-0.47,0.13c-0.03,0-1.13-0.37-3.3-1.1
					C639.39,695.58,638.17,694.12,636.94,691.59z M635.08,667.21c-0.62,0-1.13,0.49-1.55,1.46c-0.03,0.09-0.31,0.54-0.83,1.37
					c-0.45,0.71-1.27,3.12-2.47,7.24c-1.31,4.39-1.96,7.85-1.96,10.38c0,1.8,0.26,3.24,0.77,4.33c0.48,0.97,0.96,1.46,1.44,1.46
					c0.31,0,0.67-0.28,1.08-0.84c0.55-0.77,0.86-1.18,0.93-1.24c0.72-0.62,1.12-1.07,1.19-1.37c0.03-0.18,0.29-0.71,0.77-1.59
					c0.89-2.53,1.37-4.2,1.44-4.99l0.31-1.06l0.15-1.77c0.17-0.35,0.26-0.74,0.26-1.15c-0.03-0.47,0.09-1.15,0.36-2.03
					c0.52-1.8,0.79-3.25,0.83-4.37c0.27-1.06,0.41-1.71,0.41-1.94c0-0.82-0.17-1.65-0.52-2.47c-0.1-0.29-0.23-0.48-0.36-0.55
					c-0.14-0.07-0.53-0.17-1.19-0.29C635.61,667.41,635.25,667.21,635.08,667.21z"/>
			</g>
			<g>
				<path class="st1" d="M664.68,690.31c1-2.12,2.01-4.45,3.04-6.98c1.13-2.71,2.63-6.27,4.49-10.69c1.1-2.65,1.74-4.64,1.91-5.96
					c0.2-1.21,0.33-1.88,0.39-2.01c0.05-0.13,0.28-0.3,0.7-0.51c0.03,0,0.38-0.31,1.03-0.93c0.52-0.41,2.01-1.03,4.49-1.85
					l0.52,0.18l0.88,0.22l1.44,1.19c1.2,0.62,2.04,1.12,2.5,1.5c0.46,0.38,0.68,0.75,0.64,1.1l-0.72,1.15l-0.41,1.77
					c-1.51,4.36-2.37,6.92-2.58,7.68c-0.2,0.77-0.43,2.49-0.67,5.17c-0.03,0.38-0.05,0.71-0.05,0.97c-0.17,1.59-0.26,2.93-0.26,4.02
					c0,1.24,0.33,2.28,1.01,3.14c0.67,0.85,1.5,1.28,2.5,1.28c1.51,0,3.08-0.96,4.69-2.87c0.89-1.06,1.44-1.59,1.65-1.59
					c0.41,0,0.6,0.29,0.57,0.88l-0.05,1.1l-0.05,1.9c-1.03,1.91-1.6,2.94-1.7,3.07c-0.1,0.13-0.52,0.4-1.24,0.82
					c-0.52,0.29-1.38,0.97-2.58,2.03c-1.82,1.62-3.69,2.43-5.62,2.43c-2.44,0-4.31-0.6-5.62-1.81c-0.83-0.77-1.53-1.91-2.11-3.44
					c-0.59-1.53-0.84-2.86-0.77-3.97c0.27-3.74,0.48-5.81,0.62-6.23c0.38-0.88,0.57-1.58,0.57-2.08c0-0.59-0.21-0.88-0.62-0.88
					c-0.45,0-0.95,1.06-1.5,3.18c-0.24,0.82-0.91,2.33-2.01,4.5c-1.03,2.03-1.7,3.58-2.01,4.64c-0.86,2.68-1.44,4.25-1.75,4.72
					c-0.24,0.41-0.36,0.68-0.36,0.79c0,0.03,0.14,0.43,0.41,1.19c0.03,0.12,0.05,0.21,0.05,0.26c0,0.35-0.29,0.75-0.88,1.19
					c-0.76,0.62-1.22,0.93-1.39,0.93l-1.39-0.04c-1,0-1.56-0.03-1.7-0.09c-0.14-0.06-0.36-0.31-0.67-0.75
					c-0.31-0.5-0.52-0.75-0.62-0.75l-1.29,0.04c-0.86,0-1.46-0.52-1.8-1.55c-0.27-0.74-0.41-2.43-0.41-5.08l-0.1-4.33l0.21-3.67
					c0-1.38,0.09-2.68,0.26-3.89c0.34-2.5,0.52-4.25,0.52-5.25l-0.1-4.64c0-1.12,0.22-1.96,0.67-2.52c0.17-0.24,0.26-0.37,0.26-0.4
					l-0.82-1.55l0.2-0.49l0.36-0.84c1.13-0.94,1.86-1.41,2.16-1.41c0.17,0,0.72,0.19,1.65,0.57c0.17,0.06,0.4,0.09,0.67,0.09
					c0.65,0,1.32-0.13,2.01-0.4c0.48-0.21,0.83-0.31,1.03-0.31c0.55,0,1.3,0.5,2.27,1.5c0.96,1,1.44,1.8,1.44,2.38
					c0,0.26-0.22,0.82-0.67,1.68c-0.52,1.03-0.9,2.9-1.13,5.61c0,0.59-0.33,2.59-0.98,6.01
					C665.26,684.69,664.88,687.63,664.68,690.31z"/>
			</g>
			<g>
				<path class="st1" d="M711.03,691.59c-0.62,0.82-1.7,2.41-3.25,4.77c-0.27,0.38-0.96,1.04-2.06,1.97
					c-1.1,0.93-1.94,1.54-2.53,1.83c-0.76,0.41-1.46,0.62-2.11,0.62c-1.69,0-3.4-0.72-5.16-2.16c-2.44-1.97-3.66-5.09-3.66-9.36
					c0-3.71,0.74-8.61,2.22-14.7c0.51-2.18,1.07-3.8,1.67-4.86c0.6-1.06,1.74-2.52,3.43-4.37c0.69-0.77,1.25-1.27,1.7-1.5
					c0.44-0.24,1.6-0.66,3.45-1.28c1.27-0.44,2.2-0.66,2.78-0.66c0.86,0,1.56,0.14,2.12,0.42c0.55,0.28,1.5,0.98,2.83,2.1
					c0.41,0.35,0.7,0.52,0.88,0.49c0.55-0.09,0.91-0.15,1.08-0.18c0.69,0.59,1.23,0.93,1.62,1.04c0.4,0.1,1.35,0.17,2.86,0.2
					c1.24,0.03,2.14,0.21,2.71,0.53s0.97,0.91,1.21,1.77c0.38,0.41,0.57,0.69,0.57,0.84c0,0.21-0.14,0.5-0.41,0.88
					c-0.31,0.41-0.46,0.66-0.46,0.75l0.05,1.68c0,0.12-0.1,0.4-0.31,0.84c-0.45,0.97-0.75,1.82-0.9,2.54
					c-0.16,0.72-0.46,2.7-0.9,5.94c-0.41,1.56-0.62,2.68-0.62,3.36c0,1.09,0.14,2.06,0.41,2.91c0.62,1.91,1.44,2.87,2.47,2.87
					c0.41,0,1.43-0.83,3.07-2.49c1.63-1.66,2.72-3,3.27-4c0.31-0.59,0.58-0.88,0.82-0.88c0.31,0,0.47,0.19,0.47,0.57
					c0,0.21-0.05,0.57-0.16,1.1c-0.07,0.32-0.1,0.71-0.1,1.15c0,0.38,0.02,0.72,0.05,1.02c0.07,0.44,0.1,0.72,0.1,0.84
					c0,1.12-1.27,2.81-3.82,5.08c-0.86,0.77-1.62,1.18-2.27,1.24c-0.07,0-0.6,0.38-1.6,1.15c-0.45,0.35-1.22,0.65-2.32,0.88
					c-0.93,0.18-1.53,0.32-1.8,0.44c-0.24,0.09-0.4,0.13-0.47,0.13c-0.03,0-1.13-0.37-3.3-1.1
					C713.48,695.58,712.26,694.12,711.03,691.59z M709.17,667.21c-0.62,0-1.13,0.49-1.55,1.46c-0.03,0.09-0.31,0.54-0.83,1.37
					c-0.45,0.71-1.27,3.12-2.47,7.24c-1.31,4.39-1.96,7.85-1.96,10.38c0,1.8,0.26,3.24,0.77,4.33c0.48,0.97,0.96,1.46,1.44,1.46
					c0.31,0,0.67-0.28,1.08-0.84c0.55-0.77,0.86-1.18,0.93-1.24c0.72-0.62,1.12-1.07,1.19-1.37c0.03-0.18,0.29-0.71,0.77-1.59
					c0.89-2.53,1.37-4.2,1.44-4.99l0.31-1.06l0.15-1.77c0.17-0.35,0.26-0.74,0.26-1.15c-0.03-0.47,0.09-1.15,0.36-2.03
					c0.52-1.8,0.79-3.25,0.83-4.37c0.27-1.06,0.41-1.71,0.41-1.94c0-0.82-0.17-1.65-0.52-2.47c-0.1-0.29-0.23-0.48-0.36-0.55
					c-0.14-0.07-0.53-0.17-1.19-0.29C709.7,667.41,709.34,667.21,709.17,667.21z"/>
			</g>
			<g>
				<path class="st1" d="M741.86,674.55c-0.93,5.8-1.39,9.63-1.39,11.48c0,2.03,0.33,3.72,0.98,5.08c0.65,1.35,1.46,2.03,2.42,2.03
					c0.96,0,2.17-0.54,3.61-1.63c1.44-1.09,2.75-2.43,3.92-4.02c0.72-1.03,1.32-1.55,1.81-1.55c0.27,0,0.39,0.12,0.36,0.35
					l-0.05,0.53v1.63l-0.05,1.15l0.1,1.63c-0.03,0.29-0.62,0.93-1.75,1.9l-0.62,0.84l-1.29,1.32c-0.72,0.88-1.18,1.39-1.36,1.52
					c-0.19,0.13-0.82,0.4-1.88,0.82c-0.1-0.03-0.55,0.25-1.34,0.84c-1.1,0.82-2,1.37-2.71,1.63s-1.59,0.4-2.66,0.4
					c-1.34,0-2.37-0.15-3.09-0.44c-0.72-0.29-1.7-0.94-2.94-1.94c-1.51-1.24-2.56-2.31-3.15-3.22c-0.58-0.91-0.88-1.96-0.88-3.14
					c0-3,0.13-6.05,0.39-9.14s0.54-5.11,0.85-6.05c0.38-1.06,0.57-1.93,0.57-2.61c0-0.32-0.29-0.71-0.87-1.15
					c-0.34-0.24-0.52-0.66-0.52-1.28c0-0.41,0.09-0.82,0.26-1.24c0.2-0.41,0.31-0.68,0.31-0.79c0-0.12-0.09-0.35-0.26-0.71
					c-0.24-0.53-0.36-1.27-0.36-2.21c0-0.82,0.17-1.38,0.51-1.66c0.34-0.28,1.03-0.43,2.06-0.46c0.24-0.09,0.43-0.84,0.57-2.25
					l0.83-4.55c0.38-3.41,0.57-5.2,0.57-5.34c0-0.32-0.22-0.59-0.67-0.79c-0.31-0.15-0.47-0.35-0.47-0.62c0-0.32,0.5-0.75,1.5-1.28
					c0.34-0.59,0.72-1,1.13-1.24c1.2-0.71,1.82-1.09,1.86-1.15c0.86-0.65,1.48-0.97,1.86-0.97c0.03,0,0.19,0.04,0.47,0.13
					c0.24,0.09,0.74,0.18,1.5,0.26c0.72,0.12,1.19,0.22,1.39,0.31c0.2,0.09,0.65,0.41,1.34,0.97c0.38,0.32,0.84,0.6,1.39,0.84
					c0.86,0.32,1.29,0.68,1.29,1.06c0,0.21-0.29,0.71-0.88,1.5c-0.93,1.3-1.86,4.22-2.78,8.79c-0.52,2.56-0.77,4.02-0.77,4.37
					c0,0.21,0.12,0.34,0.36,0.4c0.24,0.06,1.07,0.13,2.48,0.22c0.93,0.06,1.52,0.15,1.78,0.26c0.26,0.12,0.44,0.38,0.54,0.79
					c0.21,0.56,0.33,0.87,0.36,0.93c0.41,0.82,0.62,1.31,0.62,1.46c0,0.18-0.45,0.59-1.34,1.24c-0.2,0.15-0.31,0.35-0.31,0.62
					c0,0.41,0.29,0.82,0.88,1.24c0.62,0.44,0.93,0.94,0.93,1.5c0,1-0.4,1.5-1.19,1.5c-0.31,0-0.65-0.06-1.03-0.18
					c-0.83-0.21-1.48-0.31-1.96-0.31C744.4,674.19,743.34,674.31,741.86,674.55z"/>
			</g>
			<g>
				<path class="st1" d="M762.22,696.09l-1.55,0.13c-0.72,0-1.64-0.43-2.76-1.28c-1.12-0.85-2.03-1.83-2.76-2.91
					c-1.17-1.71-1.75-3.53-1.75-5.48c0-1.15,0.07-2.4,0.21-3.75c0.27-2.8,0.41-4.7,0.41-5.7c0-0.91,0.1-1.85,0.31-2.83
					c0.07-1.83,0.13-2.91,0.18-3.25s0.27-1.21,0.64-2.63c0.17-0.68,0.26-1.22,0.26-1.63c0-0.53-0.05-0.88-0.15-1.04
					c-0.1-0.16-0.4-0.4-0.88-0.73l0.15-0.49c0.03-0.12,0.05-0.34,0.05-0.66c0-0.15,0.19-0.35,0.57-0.6s0.67-0.36,0.88-0.33
					l1.19,0.13c0.07,0,0.34-0.13,0.83-0.4c0.76-0.5,2.06-0.75,3.92-0.75c0.55,0,1.1,0.26,1.65,0.79c0.79,0.77,1.82,1.56,3.09,2.38
					c0.41,0.29,0.62,0.6,0.62,0.93c0,0.32-0.33,0.93-0.98,1.81c-0.34,0.56-0.59,1.71-0.72,3.44c-0.07,0.59-0.45,2.43-1.13,5.52
					c-0.55,2.36-0.82,4.58-0.82,6.67c0,4.06,0.93,6.09,2.78,6.09c0.69,0,1.46-0.35,2.32-1.04c0.86-0.69,1.6-1.54,2.22-2.54
					c0.89-1.56,1.46-2.34,1.7-2.34c0.45,0,0.63,0.46,0.57,1.37c0,0.21-0.03,0.47-0.1,0.79c-0.07,0.26-0.1,0.47-0.1,0.62l0.05,2.43
					c0,0.15-0.24,0.59-0.72,1.32l-0.41,0.71l-1.03,0.93l-0.41,0.44l-0.98,0.62l-1.91,1.63l-1.08,0.49
					c-1.37,0.77-2.35,1.15-2.94,1.15L762.22,696.09z M762.22,656.48l-1.75,0.13c-0.45,0-1.15-0.27-2.11-0.82
					c-0.96-0.54-1.72-1.11-2.27-1.7c-0.79-0.82-1.19-1.68-1.19-2.56c0-0.97,0.41-2.16,1.24-3.58c0.52-0.88,1.17-1.41,1.96-1.59
					c0.27-0.06,1.03-0.25,2.27-0.57l1.55,0.22c1.1,0.12,1.79,0.22,2.06,0.31c0.27,0.09,0.63,0.34,1.08,0.75
					c0.83,0.68,1.28,1.1,1.37,1.26c0.09,0.16,0.21,0.73,0.39,1.7c0.24,0.88,0.36,1.43,0.36,1.63c0,0.32-0.19,0.74-0.57,1.24
					c-0.59,0.71-0.93,1.16-1.03,1.37c-0.58,1-1,1.63-1.26,1.9s-0.59,0.38-1.01,0.35L762.22,656.48z"/>
			</g>
		</g>
	</g>
</g>
<g id="Layer_2">
	<g>
		<ellipse class="st2" cx="547.92" cy="325.01" rx="257.32" ry="254.31"/>
	</g>
	<line class="st3" x1="363.77" y1="498.23" x2="536.59" y2="70.99"/>
	<path class="st4" d="M781.7,599.01c-0.59,0-1.15-0.35-1.43-0.96L542.06,79.61c-0.39-0.85-0.07-1.89,0.72-2.32
		c0.79-0.43,1.75-0.08,2.14,0.78l238.2,518.44c0.39,0.85,0.07,1.89-0.72,2.32C782.18,598.95,781.93,599.01,781.7,599.01z"/>
	<line class="st3" x1="782.4" y1="598.83" x2="546.78" y2="81.83"/>
</g>
</svg>
